# xmcd
#
# Track frame offsets:
#	150
#	14970
#	25936
#	38753
#	50785
#	61989
#	81218
#	93725
#	107923
#	119705
#	131638
#	142092
#	154521
#	167304
#	178974
#	190485
#	199491
#	222094
#
# Disc length: 3133 seconds
#
# Revision: 1
# Processed by: cddbd v1.5.2PL0 Copyright (c) Steve Scherf et al.
# Submitted via: audiograbber 1.83.01
#
DISCID=170c3b12
DTITLE=country - Number 1s  CD 2
DYEAR=1900
DGENRE=
TTITLE0=Jeannie C. Riley - Harper Valley P.T.A.
TTITLE1=Hank Locklin - Please Help Me I'm Falling
TTITLE2=Jim Reeves - Bimbo
TTITLE3=Tennessee Ernie Ford - Sixteen Tons
TTITLE4=Roger Miller - King Of The Road
TTITLE5=Juice Newton - The Sweetest Thing (I've Ever Known)
TTITLE6=Don Williams - Some Broken Hearts Never Mend
TTITLE7=Merle Haggard - Always Wanting You
TTITLE8=Eddy Arnold - Bouquet Of Roses
TTITLE9=Hank Williams - Take These Chains From My Heart
TTITLE10=Leroy Van Dyke - Walk On By
TTITLE11=Hank Thompson - The Wild Side Of Life
TTITLE12=Hank Snow - I'm Movin' On
TTITLE13=Freddy Fender - Before The Next Teardrop Falls
TTITLE14=The Kendalls - Heaven's Just A Sin Away
TTITLE15=Johnny Rodriguez - Just Get Up And Close The Door
TTITLE16=Eddi Rabbit - Suspicions
TTITLE17=Charlie Rich - The Most Beautiful Girl
EXTD=
EXTT0=
EXTT1=
EXTT2=
EXTT3=
EXTT4=
EXTT5=
EXTT6=
EXTT7=
EXTT8=
EXTT9=
EXTT10=
EXTT11=
EXTT12=
EXTT13=
EXTT14=
EXTT15=
EXTT16=
EXTT17=
PLAYORDER=
